
<svg xmlns="http://www.w3.org/2000/svg" version="1.1" xmlns:xlink="http://www.w3.org/1999/xlink" preserveAspectRatio="none" x="0px" y="0px" width="200px" height="80px" viewBox="0 0 200 80">
<defs>
<g id="Layer1_0_FILL">
<path fill="#000000" fill-opacity="0.5882352941176471" stroke="none" d="
M 169.95 19.55
Q 171.25 15.95 167.5 13.8
L 163.2 11.3
Q 159.45 9.15 157.1 12.1
L 157 12.05
Q 156.75 12.35 156.55 12.7
L 156.3 13.15 152.05 10.65
Q 151.25 10.2 150.5 10.45 149.6 10.65 149.25 11.35 148.8 12.1 149.1 12.9 149.3 13.7 150.05 14.15
L 154.3 16.65 152.1 20.45 147.8 18
Q 147.05 17.55 146.25 17.85 145.45 18 145 18.7 144.55 19.4 144.85 20.25 145 21.05 145.75 21.5
L 150.1 24
Q 148.1 27.95 152.15 30.35
L 156.55 32.9
Q 160.8 35.35 163.3 31.05
L 165.4 27.4
Q 165.43046875 27.43046875 165.45 27.45 166.2 28.2 167.25 28.2 168.3 28.2 169 27.45 169.75 26.75 169.75 25.7 169.75 24.65 169 23.9 168.503125 23.403125 167.8 23.25
L 169.55 20.3
Q 169.6 20.15 169.7 20 169.8 19.85 169.95 19.6
L 169.95 19.55
M 161.75 67.6
Q 161.05 66.9 160 66.9 158.95 66.9 158.2 67.6 157.5 68.35 157.5 69.4 157.5 70.45 158.2 71.15 158.95 71.9 160 71.9 161.05 71.9 161.75 71.15 162.5 70.45 162.5 69.4 162.5 68.35 161.75 67.6
M 143.3 62.5
Q 142.6 63.25 142.6 64.3 142.6 65.35 143.3 66.05 144.05 66.8 145.1 66.8 146.15 66.8 146.85 66.05 147.6 65.35 147.6 64.3 147.6 63.25 146.85 62.5 146.15 61.8 145.1 61.8 144.05 61.8 143.3 62.5
M 149.65 68
Q 149.65 69.05 150.35 69.75 151.1 70.5 152.15 70.5 153.2 70.5 153.9 69.75 154.65 69.05 154.65 68 154.65 66.95 153.9 66.2 153.2 65.5 152.15 65.5 151.1 65.5 150.35 66.2 149.65 66.95 149.65 68
M 175.15 62.4
Q 174.1 62.4 173.35 63.1 172.65 63.85 172.65 64.9 172.65 65.95 173.35 66.65 174.1 67.4 175.15 67.4 176.2 67.4 176.9 66.65 177.65 65.95 177.65 64.9 177.65 63.85 176.9 63.1 176.2 62.4 175.15 62.4
M 169.75 66.75
Q 169.05 66.05 168 66.05 166.95 66.05 166.2 66.75 165.5 67.5 165.5 68.55 165.5 69.6 166.2 70.3 166.95 71.05 168 71.05 169.05 71.05 169.75 70.3 170.5 69.6 170.5 68.55 170.5 67.5 169.75 66.75
M 178.35 57.1
Q 177.65 57.85 177.65 58.9 177.65 59.95 178.35 60.65 179.1 61.4 180.15 61.4 181.2 61.4 181.9 60.65 182.65 59.95 182.65 58.9 182.65 57.85 181.9 57.1 181.2 56.4 180.15 56.4 179.1 56.4 178.35 57.1
M 184.25 49.45
Q 183.55 48.75 182.5 48.75 181.45 48.75 180.7 49.45 180 50.2 180 51.25 180 52.3 180.7 53 181.45 53.75 182.5 53.75 183.55 53.75 184.25 53 185 52.3 185 51.25 185 50.2 184.25 49.45
M 182.2 40.75
Q 181.15 40.75 180.4 41.45 179.7 42.2 179.7 43.25 179.7 44.3 180.4 45 181.15 45.75 182.2 45.75 183.25 45.75 183.95 45 184.7 44.3 184.7 43.25 184.7 42.2 183.95 41.45 183.25 40.75 182.2 40.75
M 176.15 30.2
Q 176.15 29.15 175.4 28.4 174.7 27.7 173.65 27.7 172.6 27.7 171.85 28.4 171.15 29.15 171.15 30.2 171.15 31.25 171.85 31.95 172.6 32.7 173.65 32.7 174.7 32.7 175.4 31.95 176.15 31.25 176.15 30.2
M 177.2 34.25
Q 176.5 35 176.5 36.05 176.5 37.1 177.2 37.8 177.95 38.55 179 38.55 180.05 38.55 180.75 37.8 181.5 37.1 181.5 36.05 181.5 35 180.75 34.25 180.05 33.55 179 33.55 177.95 33.55 177.2 34.25
M 123.8 20.55
Q 122.833984375 20.202734375 121.9 20.65 120.957421875 21.0857421875 120.6 22.05 120.558984375 22.16484375 120.5 22.25 120.44453125 22.4193359375 120.35 22.55
L 107.5 51.45 92.65 21.45
Q 92.181640625 20.5150390625 91.2 20.15 90.2255859375 19.8408203125 89.3 20.3 88.3642578125 20.7669921875 88 21.75 87.9837890625 21.8703125 87.95 22 87.8705078125 22.125 87.8 22.25
L 71.6 56.6
Q 71.1529296875 57.574609375 71.5 58.55 71.857421875 59.5142578125 72.8 59.95 73.733984375 60.397265625 74.7 60.05 75.6640625 59.701953125 76.1 58.75
L 90.45 28.3 105.4 58.45
Q 105.844921875 59.3435546875 106.75 59.7 107.705078125 60.0419921875 108.6 59.65 109.5294921875 59.2728515625 109.9 58.35
L 123 28.9 137.35 59.2
Q 137.5033203125 59.551171875 137.7 59.8 137.8970703125 60.2470703125 138.25 60.6 139 61.35 140.05 61.35 140.915625 61.35 141.55 60.85 141.6771484375 60.731640625 141.8 60.6 142.55 59.9 142.55 58.85 142.55 57.852734375 141.85 57.1 141.8619140625 57.1005859375 141.85 57.05
L 125.2 21.8
Q 124.7642578125 20.8986328125 123.8 20.55
M 69.75 21.45
Q 68.7974609375 21.7990234375 68.3 22.7
L 53.55 51.55 40.95 23.15
Q 40.5578125 22.24140625 39.6 21.85 38.642578125 21.50234375 37.7 21.9 36.7509765625 22.3419921875 36.35 23.3 36.3041015625 23.4837890625 36.25 23.65 36.174609375 23.801171875 36.1 23.95
L 22.8 50.75 10.75 21.9
Q 10.3517578125 20.9853515625 9.4 20.6 8.451171875 20.2021484375 7.5 20.6 6.54453125 20.9982421875 6.15 21.95 5.7521484375 22.9080078125 6.15 23.85
L 20.35 57.75
Q 20.73671875 58.6984375 21.65 59.1 22.563671875 59.4984375 23.5 59.15 24.446875 58.801171875 24.9 57.9
L 38.6 30.15 51.1 58.35
Q 51.5205078125 59.2669921875 52.4 59.65 53.3296875 60.0376953125 54.25 59.7 55.1736328125 59.3583984375 55.6 58.45
L 72.75 24.95
Q 73.2447265625 24.05390625 72.9 23.05 72.6015625 22.0958984375 71.65 21.6 70.7544921875 21.1537109375 69.75 21.45 Z"/>
</g>

<g id="Layer0_0_FILL">
<path fill="#189C00" stroke="none" d="
M 70.75 23.7
Q 71.2 22.75 70.9 21.8 70.55 20.8 69.65 20.35 68.7 19.85 67.75 20.2 66.75 20.5 66.3 21.45
L 51.55 50.25 38.95 21.9
Q 38.5 20.95 37.55 20.6 36.6 20.2 35.65 20.65 34.7 21.05 34.35 22 34.25 22.2 34.2 22.4 34.1 22.5 34.05 22.65
L 20.8 49.5 8.7 20.65
Q 8.3 19.7 7.35 19.3 6.4 18.9 5.45 19.3 4.5 19.7 4.1 20.65 3.7 21.6 4.1 22.6
L 18.3 56.5
Q 18.7 57.4 19.6 57.8 20.5 58.2 21.45 57.85 22.4 57.5 22.85 56.6
L 36.6 28.9 49.1 57.1
Q 49.45 57.95 50.4 58.35 51.3 58.75 52.2 58.4 53.1 58.05 53.6 57.2
L 70.75 23.7
M 167.9 18.25
Q 169.2 14.65 165.45 12.5
L 161.15 10
Q 157.4 7.85 155.05 10.8
L 154.95 10.75
Q 154.7 11.05 154.5 11.4
L 154.25 11.85 150 9.35
Q 149.2 8.9 148.45 9.15 147.55 9.35 147.2 10.05 146.75 10.8 147.05 11.6 147.25 12.4 148 12.85
L 152.25 15.35 150.05 19.15 145.75 16.7
Q 145 16.25 144.2 16.55 143.4 16.7 142.95 17.4 142.5 18.1 142.8 18.95 142.95 19.75 143.7 20.2
L 148.05 22.7
Q 146.05 26.65 150.1 29.05
L 154.5 31.6
Q 158.75 34.05 161.25 29.75
L 167.5 19
Q 167.55 18.85 167.65 18.7 167.75 18.55 167.9 18.3
L 167.9 18.25 Z"/>

<path fill="#F2F4FA" stroke="none" d="
M 135.5 57.55
Q 135.5 58.05 135.7 58.5 135.85 58.95 136.2 59.3 136.95 60.05 138 60.05 138.85 60.05 139.5 59.55 139.65 59.45 139.75 59.3 140.5 58.6 140.5 57.55 140.5 56.55 139.85 55.85
L 139.8 55.8 139.75 55.75
Q 139.05 55.05 138 55.05 136.95 55.05 136.2 55.75 135.5 56.5 135.5 57.55 Z"/>

<path fill="#FFFFFF" stroke="none" d="
M 123.15 20.55
Q 122.7 19.6 121.75 19.25 120.8 18.9 119.85 19.35 118.9 19.8 118.55 20.75 118.5 20.85 118.5 21 118.4 21.1 118.35 21.3
L 105.5 50.2 90.6 20.15
Q 90.15 19.2 89.15 18.9 88.2 18.55 87.25 19 86.3 19.45 86 20.45 85.95 20.55 85.9 20.7 85.8 20.85 85.75 21
L 69.55 55.35
Q 69.1 56.25 69.45 57.25 69.8 58.2 70.75 58.65 71.7 59.1 72.65 58.75 73.6 58.4 74.05 57.5
L 88.45 27.05 103.35 57.15
Q 103.8 58.05 104.75 58.4 105.65 58.75 106.6 58.35 107.5 57.95 107.9 57.1
L 121 27.6 135.3 57.95
Q 135.45 58.25 135.7 58.5 135.5 58.05 135.5 57.55 135.5 56.5 136.2 55.75 136.95 55.05 138 55.05 139.05 55.05 139.75 55.75
L 139.8 55.8 123.15 20.55 Z"/>
</g>

<g id="Layer0_0_STROKES_1_FILL">
<path fill="#F2F4FA" stroke="none" d="
M 159.7 66.3
Q 159 65.6 157.95 65.6 156.9 65.6 156.15 66.3 155.45 67.05 155.45 68.1 155.45 69.15 156.15 69.85 156.9 70.6 157.95 70.6 159 70.6 159.7 69.85 160.45 69.15 160.45 68.1 160.45 67.05 159.7 66.3
M 151.85 64.9
Q 151.15 64.2 150.1 64.2 149.05 64.2 148.3 64.9 147.6 65.65 147.6 66.7 147.6 67.75 148.3 68.45 149.05 69.2 150.1 69.2 151.15 69.2 151.85 68.45 152.6 67.75 152.6 66.7 152.6 65.65 151.85 64.9
M 144.8 61.2
Q 144.1 60.5 143.05 60.5 142 60.5 141.25 61.2 140.55 61.95 140.55 63 140.55 64.05 141.25 64.75 142 65.5 143.05 65.5 144.1 65.5 144.8 64.75 145.55 64.05 145.55 63 145.55 61.95 144.8 61.2
M 168.45 67.25
Q 168.45 66.2 167.7 65.45 167 64.75 165.95 64.75 164.9 64.75 164.15 65.45 163.45 66.2 163.45 67.25 163.45 68.3 164.15 69 164.9 69.75 165.95 69.75 167 69.75 167.7 69 168.45 68.3 168.45 67.25
M 176.3 55.8
Q 175.6 56.55 175.6 57.6 175.6 58.65 176.3 59.35 177.05 60.1 178.1 60.1 179.15 60.1 179.85 59.35 180.6 58.65 180.6 57.6 180.6 56.55 179.85 55.8 179.15 55.1 178.1 55.1 177.05 55.1 176.3 55.8
M 174.85 61.8
Q 174.15 61.1 173.1 61.1 172.05 61.1 171.3 61.8 170.6 62.55 170.6 63.6 170.6 64.65 171.3 65.35 172.05 66.1 173.1 66.1 174.15 66.1 174.85 65.35 175.6 64.65 175.6 63.6 175.6 62.55 174.85 61.8
M 182.2 48.15
Q 181.5 47.45 180.45 47.45 179.4 47.45 178.65 48.15 177.95 48.9 177.95 49.95 177.95 51 178.65 51.7 179.4 52.45 180.45 52.45 181.5 52.45 182.2 51.7 182.95 51 182.95 49.95 182.95 48.9 182.2 48.15
M 181.9 40.15
Q 181.2 39.45 180.15 39.45 179.1 39.45 178.35 40.15 177.65 40.9 177.65 41.95 177.65 43 178.35 43.7 179.1 44.45 180.15 44.45 181.2 44.45 181.9 43.7 182.65 43 182.65 41.95 182.65 40.9 181.9 40.15
M 173.35 30.65
Q 174.1 29.95 174.1 28.9 174.1 27.85 173.35 27.1 172.65 26.4 171.6 26.4 170.55 26.4 169.8 27.1 169.1 27.85 169.1 28.9 169.1 29.95 169.8 30.65 170.55 31.4 171.6 31.4 172.65 31.4 173.35 30.65
M 176.95 32.25
Q 175.9 32.25 175.15 32.95 174.45 33.7 174.45 34.75 174.45 35.8 175.15 36.5 175.9 37.25 176.95 37.25 178 37.25 178.7 36.5 179.45 35.8 179.45 34.75 179.45 33.7 178.7 32.95 178 32.25 176.95 32.25
M 166.95 22.6
Q 166.25 21.9 165.2 21.9 164.15 21.9 163.4 22.6 162.7 23.35 162.7 24.4 162.7 25.45 163.4 26.15 164.15 26.9 165.2 26.9 166.25 26.9 166.95 26.15 167.7 25.45 167.7 24.4 167.7 23.35 166.95 22.6 Z"/>
</g>
</defs>

<g transform="matrix( 1, 0, 0, 1, 0,0) ">
<use xlink:href="#Layer1_0_FILL"/>
</g>

<g transform="matrix( 1, 0, 0, 1, 0,0) ">
<use xlink:href="#Layer0_0_FILL"/>

<use xlink:href="#Layer0_0_STROKES_1_FILL"/>
</g>
</svg>
